<svg viewBox="0 0 1143 909" xmlns="http://www.w3.org/2000/svg" class="logo">
    <path fill="#59c6ff" d="M917.7 851.8c137-51.2 225.3-132 225.3-223 0-41-18-80-50.4-115 1.7-11.2 2.6-22.5 2.6-34.2 0-113.3-91.5-209.3-200.4-218C864.3 113.4 733.6 0 572.4 0 446 0 337 69.8 284.8 174.4 149.8 191.8 49.5 301 49.5 436c0 24 3.3 47 9.3 69C21.2 542.4 0 584.4 0 629c0 90.7 88.2 171.5 225 222.7v-181c0-40.8 30.3-74.3 69.5-79.5v-64c0-153 124-277.2 277.2-277.2 153 0 277 124.2 277 277.3v64c39 5.5 69 39 69 79.3v181.2zM408.3 590.6H735v-63.3c0-90.3-73-163.5-163.3-163.5-90.2 0-163.4 73.2-163.4 163.5v63.3z"/>
    <path fill="#59c6ff" d="M1039.6 530l3.6-23.7c1.3-8.7 2-17.6 2-26.7 0-86-70.2-161.4-154.4-168l-37.5-3-7.5-37C819.4 143.6 706.5 50 572.4 50c-105.3 0-198 57-243 146.8l-11.8 23.8-26.4 3.4C180 238.4 99.5 327.2 99.5 436c0 19 2.6 37.7 7.5 55.7l7.8 28.2L94 540.2C64.4 570 50 599.8 50 629c0 52.5 48.2 108.4 139.4 153 99.2 48.7 235.7 77 382 77 146.5 0 283-28.3 382.2-77 91.2-44.6 139.4-100.5 139.4-153 0-27-12-54.2-37.2-81.4l-16.2-17.6zm103.4 99c0 154.6-256 280-571.5 280S0 783.6 0 629c0-44.6 21.2-86.6 58.8-124-6-22-9.3-45-9.3-69 0-135 100.3-244.2 235.3-261.6C337 69.8 446 0 572.4 0c161.2 0 292 113.4 322.4 261.6 109 8.7 200.4 104.7 200.4 218 0 11.7-1 23-2.6 34C1125 549 1143 588 1143 629z"/>
</svg>
