<?xml version="1.0" encoding="UTF-8" standalone="no"?>
<svg width="1143px" height="909px" viewBox="0 0 1143 909" version="1.1" xmlns="http://www.w3.org/2000/svg" xmlns:xlink="http://www.w3.org/1999/xlink">
    <!-- Generator: Sketch 39.1 (31720) - http://www.bohemiancoding.com/sketch -->
    <title>padlock-cloud</title>
    <desc>Created with Sketch.</desc>
    <defs>
        <path d="M1092.61153,513.743157 C1124.98234,548.871457 1143,587.858199 1143,628.907407 C1143,783.598275 887.130735,909 571.5,909 C255.869265,909 0,783.598275 0,628.907407 C0,584.418507 21.1637253,542.352201 58.8261307,504.994831 C52.7789884,482.999488 49.5470852,459.868389 49.5470852,436.018519 C49.5470852,300.852778 149.751794,191.848148 284.810314,174.407407 C337.091031,69.762963 446.009193,0 572.35426,0 C733.553139,0 864.254933,113.364815 894.752018,261.611111 C1003.67018,270.331481 1095.16143,366.255556 1095.16143,479.62037 C1095.16143,491.252219 1094.29136,502.646588 1092.61151,513.743139 Z" id="path-1"></path>
    </defs>
    <g id="Page-1" stroke="none" stroke-width="1" fill="none" fill-rule="evenodd">
        <g id="padlock-cloud">
            <mask id="mask-2" fill="white">
                <use xlink:href="#path-1"></use>
            </mask>
            <use id="Combined-Shape" fill="#59C6FF" xlink:href="#path-1"></use>
            <path d="M294.50551,591.245783 C255.275374,596.387507 225,629.935295 225,670.554291 L225,941.723517 C225,985.9042 260.821496,1021.71499 305.009552,1021.71499 L837.676669,1021.71499 C881.872902,1021.71499 917.686221,985.901585 917.686221,941.723517 L917.686221,670.554291 C917.686221,630.162735 887.745652,596.766963 848.844004,591.335733 L848.844004,527.327695 C848.844004,374.168723 724.752543,250 571.674757,250 C418.597522,250 294.50551,374.168966 294.50551,527.327695 L294.50551,591.245783 Z M408.299617,590.562823 L735.049898,590.562823 L735.049898,527.327695 C735.049898,437.029306 661.898499,363.832362 571.674757,363.832362 C481.451503,363.832362 408.299617,437.029612 408.299617,527.327695 L408.299617,590.562823 Z" id="Mask" fill="#FFFFFF" mask="url(#mask-2)"></path>
        </g>
    </g>
</svg>